<svg xmlns="http://www.w3.org/2000/svg" xmlns:xlink="http://www.w3.org/1999/xlink" viewBox="0 0 128 128"><style>.st0{display:none}.st1{fill:#6772e5}.st1,.st2{display:inline}.st3{fill:#fff}.st4{fill:none;stroke:#87bbfd;stroke-width:8;stroke-miterlimit:10}.st5,.st6{fill:#87bbfd}.st6{display:inline}.st7,.st8,.st9{display:inline;fill:none;stroke:#6772e5;stroke-miterlimit:10}.st8,.st9{stroke:#87bbfd}.st9{stroke-width:9}.st10{fill:#6772e5}.st11{fill:#43458b}.st12{clip-path:url(#XMLID_50_)}</style><g id="Layer_1" class="st0"><path id="XMLID_1_" class="st1" d="M106.8 128H21.3C9.5 128 0 118.5 0 106.8V21.3C0 9.5 9.5 0 21.3 0h85.5C118.5 0 128 9.5 128 21.3v85.5c0 11.7-9.5 21.2-21.2 21.2z"/><g id="XMLID_3_" class="st2"><path id="XMLID_4_" class="st3" d="M18.1 19.9l23.1 19.4-23.1 19.4-5.3-5.4 16.9-14-16.9-14 5.3-5.4z"/><path id="XMLID_6_" class="st3" d="M44.7 72v-6.6h38.6V72H44.7z"/></g><g id="XMLID_2_" class="st2"><g id="XMLID_27_"><path id="XMLID_30_" class="st4" d="M-.3 101.5h60"/><g id="XMLID_28_"><path id="XMLID_29_" class="st5" d="M55 117.5l27.7-16-27.7-16z"/></g></g></g><path id="XMLID_8_" class="st1" d="M-68.5-31.5h20.3V-11h-20.3z"/><path id="XMLID_10_" class="st6" d="M-68.5 6.3h20.3v20.5h-20.3z"/><path id="XMLID_12_" class="st7" d="M-94.5-31.5h20.3V-11h-20.3z"/><path id="XMLID_11_" class="st8" d="M-94.5 6.3h20.3v20.5h-20.3z"/></g><g id="Layer_2" class="st0"><path id="XMLID_14_" class="st9" d="M25.4 42L64 19.5"/><path id="XMLID_20_" class="st9" d="M102.6 42v43.5"/><path id="XMLID_21_" class="st9" d="M64 108.5l38.6-23"/><path id="XMLID_9_" class="st10" d="M32.8 46L64 27.9 95.3 46v36L64 100.1 32.8 82z"/><circle id="XMLID_13_" class="st1" cx="64" cy="19.5" r="13.5"/><circle id="XMLID_19_" class="st1" cx="64" cy="108.5" r="13.5"/><circle id="XMLID_15_" class="st1" cx="102.6" cy="42" r="13.5"/><circle id="XMLID_16_" class="st1" cx="102.6" cy="85.5" r="13.5"/><circle id="XMLID_18_" class="st1" cx="25.4" cy="42" r="13.5"/><circle id="XMLID_17_" class="st6" cx="25.4" cy="85.5" r="13.5"/></g><g id="Layer_3" class="st0"><g id="XMLID_31_" class="st2"><path id="XMLID_39_" class="st10" d="M86.3 21.5H13.8c-3.6 0-6.5 2.9-6.5 6.5v90.3c0 3.6 2.9 6.5 6.5 6.5h72.5c3.6 0 6.5-2.9 6.5-6.5V28c0-3.6-3-6.5-6.5-6.5zm-28 28.8H16.5c-2.1 0-3.8-1.7-3.8-3.8 0-2.1 1.7-3.8 3.8-3.8h41.8c2.1 0 3.8 1.7 3.8 3.8-.1 2.1-1.8 3.8-3.8 3.8zm2.8 23.2c0 2.1-1.7 3.8-3.8 3.8H28.8c-2.1 0-3.8-1.7-3.8-3.8 0-2.1 1.7-3.8 3.8-3.8h28.5c2.1.1 3.8 1.7 3.8 3.8zM16.5 56.3H28c2.1 0 3.8 1.7 3.8 3.8 0 2.1-1.7 3.8-3.8 3.8H16.5c-2.1 0-3.8-1.7-3.8-3.8.1-2.2 1.7-3.8 3.8-3.8zm0 40.5h7.3c2.1 0 3.8 1.7 3.8 3.8 0 2.1-1.7 3.8-3.8 3.8h-7.3c-2.1 0-3.8-1.7-3.8-3.8.1-2.2 1.7-3.8 3.8-3.8zm32 21h-32c-2.1 0-3.8-1.7-3.8-3.8 0-2.1 1.7-3.8 3.8-3.8h32c2.1 0 3.8 1.7 3.8 3.8 0 2.1-1.7 3.8-3.8 3.8zm9.8-13.5H37.9c-2.1 0-3.8-1.7-3.8-3.8 0-2.1 1.7-3.8 3.8-3.8h20.3c2.1 0 3.8 1.7 3.8 3.8 0 2.1-1.7 3.8-3.7 3.8zM81 90.8H28.8c-2.1 0-3.8-1.7-3.8-3.8 0-2.1 1.7-3.8 3.8-3.8H81c2.1 0 3.8 1.7 3.8 3.8 0 2.1-1.7 3.8-3.8 3.8zm0-54H16.5c-2.1 0-3.8-1.7-3.8-3.8 0-2.1 1.7-3.8 3.8-3.8H81c2.1 0 3.8 1.7 3.8 3.8 0 2.1-1.7 3.8-3.8 3.8z"/><g id="XMLID_25_"><circle id="XMLID_23_" class="st5" cx="97.3" cy="26.8" r="23.5"/><path id="XMLID_22_" class="st3" d="M109.4 29.6H85.1c-1.6 0-2.9-1.3-2.9-2.9 0-1.6 1.3-2.9 2.9-2.9h24.3c1.6 0 2.9 1.3 2.9 2.9 0 1.6-1.3 2.9-2.9 2.9z"/><path id="XMLID_24_" class="st3" d="M94.4 38.9V14.6c0-1.6 1.3-2.9 2.9-2.9 1.6 0 2.9 1.3 2.9 2.9v24.3c0 1.6-1.3 2.9-2.9 2.9-1.6 0-2.9-1.3-2.9-2.9z"/></g></g></g><g id="Layer_4"><circle id="XMLID_32_" class="st11" cx="64" cy="64" r="64"/><g id="XMLID_48_"><defs><circle id="XMLID_36_" cx="64" cy="64" r="64"/></defs><clipPath id="XMLID_50_"><use xlink:href="#XMLID_36_" overflow="visible"/></clipPath><g id="XMLID_47_" class="st12"><circle id="XMLID_33_" class="st10" cx="138.1" cy="-11.1" r="131.8"/><circle id="XMLID_34_" class="st5" cx="7.8" cy="33.4" r="37.6"/></g></g><circle id="XMLID_35_" class="st3" cx="99.1" cy="33.4" r="18.4"/></g></svg>